<?xml version="1.0" encoding="UTF-8"?>
<svg width="30px" height="30px" viewBox="0 0 30 30" version="1.1" xmlns="http://www.w3.org/2000/svg" xmlns:xlink="http://www.w3.org/1999/xlink">
    <!-- Generator: Sketch 58 (84663) - https://sketch.com -->
    <title>icons</title>
    <desc>Created with Sketch.</desc>
    <g id="Page-1" stroke="none" stroke-width="1" fill="none" fill-rule="evenodd">
        <g id="diamond">
            <rect id="Rectangle" x="0" y="0" width="30" height="30"></rect>
            <path d="M5.98233703,3 L24.0181284,3 C24.2177955,3 24.414679,3.04719067 24.5925827,3.13779565 C24.7704864,3.22840001 24.9244756,3.35981973 25.0417706,3.52131099 L29.8790811,10.1718221 C29.9651227,10.2901546 30.0075109,10.4346286 29.9989067,10.5806716 C29.9904291,10.726702 29.9314652,10.8652543 29.8322643,10.9727684 L15.4645791,26.5374444 C15.4053622,26.6014695 15.3336187,26.6525883 15.2536506,26.6875111 C15.173809,26.7224338 15.0875143,26.7404014 15.0002074,26.7404014 C14.913027,26.7404014 14.8267323,26.7224338 14.7468907,26.6875111 C14.6669226,26.6525883 14.5951791,26.6014695 14.5358357,26.5374444 L0.168202352,10.9740337 C0.0686863616,10.8664437 0.00961372813,10.7276257 0.00107536265,10.5813169 C-0.00746426814,10.4350082 0.0350605373,10.2902685 0.121385589,10.1718221 L4.95869482,3.52131099 C5.07609102,3.35981973 5.23004225,3.22840001 5.40794595,3.13779565 C5.58586231,3.04719067 5.78268251,3 5.98233703,3 Z" id="Path" fill="#000000" fill-rule="nonzero"></path>
        </g>
    </g>
</svg>