<?xml version="1.0" encoding="UTF-8"?>
<svg width="30px" height="30px" viewBox="0 0 30 30" version="1.1" xmlns="http://www.w3.org/2000/svg" xmlns:xlink="http://www.w3.org/1999/xlink">
    <!-- Generator: Sketch 58 (84663) - https://sketch.com -->
    <title>icons</title>
    <desc>Created with Sketch.</desc>
    <g id="Page-1" stroke="none" stroke-width="1" fill="none" fill-rule="evenodd">
        <g id="download_outline">
            <rect id="Rectangle" x="0" y="0" width="30" height="30"></rect>
            <path d="M0,15 C0,6.72 6.72,0 15,0 C23.28,0 30,6.72 30,15 C30,23.28 23.28,30 15,30 C6.72,30 0,23.28 0,15 Z M27,15 C27,8.37 21.63,3 15,3 C8.37,3 3,8.37 3,15 C3,21.63 8.37,27 15,27 C21.63,27 27,21.63 27,15 Z M13.5,15 L13.5,9 L16.5,9 L16.5,15 L21,15 L15,21 L9,15 L13.5,15 Z" id="Shape" fill="#000000" fill-rule="nonzero"></path>
        </g>
    </g>
</svg>