<?xml version="1.0" encoding="UTF-8"?>
<svg width="30px" height="30px" viewBox="0 0 30 30" version="1.1" xmlns="http://www.w3.org/2000/svg" xmlns:xlink="http://www.w3.org/1999/xlink">
    <!-- Generator: Sketch 58 (84663) - https://sketch.com -->
    <title>icons</title>
    <desc>Created with Sketch.</desc>
    <g id="Page-1" stroke="none" stroke-width="1" fill="none" fill-rule="evenodd">
        <g id="home">
            <rect id="Rectangle" x="0" y="0" width="30" height="30"></rect>
            <path d="M29.8265635,28.3985242 C29.8265635,28.8232356 29.6577679,29.2304908 29.3574912,29.5309277 C29.0572145,29.8312044 28.649799,30 28.2250877,30 L2.60147575,30 C2.17673876,30 1.76939699,29.8312044 1.46906104,29.5309277 C1.16872668,29.2304908 1,28.8232356 1,28.3985242 L1,11.566966 C1,11.3229172 1.05543861,11.0820712 1.16257541,10.8627972 C1.26971254,10.6435231 1.42554414,10.4516503 1.61816964,10.3018003 L14.4299757,0.337421331 C14.7110986,0.11873181 15.0571135,0 15.4132817,0 C15.76945,0 16.1154648,0.11873181 16.3965878,0.337421331 L29.2083938,10.3018003 C29.4010514,10.4516503 29.5568749,10.6435231 29.6640136,10.8627972 C29.7711524,11.0820712 29.8265635,11.3229172 29.8265635,11.566966 L29.8265635,28.3985242 Z M13.8118059,17.188194 L13.8118059,26.7970484 L17.0147575,26.7970484 L17.0147575,17.188194 L13.8118059,17.188194 Z" id="Shape" fill="#000000" fill-rule="nonzero"></path>
        </g>
    </g>
</svg>