<svg width="30" height="30" viewBox="0 0 30 30" fill="none" xmlns="http://www.w3.org/2000/svg">
<path d="M4.06773 2.49L15.2727 0L26.4777 2.49C26.7806 2.55731 27.0514 2.72587 27.2455 2.96782C27.4396 3.20978 27.5455 3.51071 27.5455 3.82091V17.4395C27.5455 18.7864 27.2127 20.1125 26.5771 21.3C25.9415 22.4875 25.0226 23.4997 23.9018 24.2468L15.2727 30L6.64364 24.2468C5.5231 23.4998 4.60426 22.4879 3.96866 21.3007C3.33305 20.1134 3.00032 18.7876 3 17.4409V3.82091C3 3.51071 3.10587 3.20978 3.29999 2.96782C3.4941 2.72587 3.76491 2.55731 4.06773 2.49ZM13.9091 12.2727H9.81818V15H13.9091V19.0909H16.6364V15H20.7273V12.2727H16.6364V8.18182H13.9091V12.2727Z" fill="#DA3624"/>
</svg>
