<svg width="30" height="36" viewBox="0 0 30 36" fill="none" xmlns="http://www.w3.org/2000/svg">
<path d="M3.75 7.17415V13.8462C3.75026 16.2192 4.26566 18.5649 5.26166 20.7258C6.25765 22.8868 7.71123 24.8132 9.525 26.376L15 31.0929L20.475 26.376C22.2889 24.8133 23.7425 22.8869 24.7385 20.7259C25.7345 18.5649 26.2499 16.2193 26.25 13.8462V7.17415L15 4.16492L3.75 7.17415ZM1.21688 4.16492L15 0L28.7831 4.16677C29.1405 4.29865 29.4484 4.53475 29.6658 4.84352C29.8833 5.15229 29.9999 5.51903 30 5.89477V13.8462C30 19.7114 27.4275 25.2923 22.9444 29.1563L15 36L7.05563 29.1563C4.83931 27.2469 3.06317 24.893 1.84629 22.2525C0.629418 19.612 -8.09479e-05 16.7458 7.80738e-09 13.8462V5.89477C0.000143295 5.51903 0.116721 5.15229 0.33416 4.84352C0.5516 4.53475 0.85955 4.29681 1.21688 4.16492ZM16.875 13.8462H20.625C21.1223 13.8462 21.5992 14.0407 21.9508 14.3869C22.3025 14.7331 22.5 15.2027 22.5 15.6923C22.5 16.1819 22.3025 16.6515 21.9508 16.9977C21.5992 17.344 21.1223 17.5385 20.625 17.5385H16.875V21.2308C16.875 21.7204 16.6775 22.19 16.3258 22.5362C15.9742 22.8824 15.4973 23.0769 15 23.0769C14.5027 23.0769 14.0258 22.8824 13.6742 22.5362C13.3225 22.19 13.125 21.7204 13.125 21.2308V17.5385H9.375C8.87772 17.5385 8.40081 17.344 8.04918 16.9977C7.69754 16.6515 7.5 16.1819 7.5 15.6923C7.5 15.2027 7.69754 14.7331 8.04918 14.3869C8.40081 14.0407 8.87772 13.8462 9.375 13.8462H13.125V10.1538C13.125 9.66422 13.3225 9.19464 13.6742 8.84842C14.0258 8.5022 14.5027 8.30769 15 8.30769C15.4973 8.30769 15.9742 8.5022 16.3258 8.84842C16.6775 9.19464 16.875 9.66422 16.875 10.1538V13.8462Z" fill="black"/>
</svg>
