<?xml version="1.0" encoding="UTF-8"?>
<svg width="30px" height="30px" viewBox="0 0 30 30" version="1.1" xmlns="http://www.w3.org/2000/svg" xmlns:xlink="http://www.w3.org/1999/xlink">
    <!-- Generator: Sketch 58 (84663) - https://sketch.com -->
    <title>icons</title>
    <desc>Created with Sketch.</desc>
    <g id="Page-1" stroke="none" stroke-width="1" fill="none" fill-rule="evenodd">
        <g id="insurance_outline">
            <rect id="Rectangle" x="0" y="0" width="30" height="30"></rect>
            <path d="M4.06772727,2.49 L15.2727273,0 L26.4776727,2.49 C26.7805091,2.55730909 27.0513818,2.72586545 27.2454545,2.96782909 C27.4396364,3.20979273 27.5454545,3.51070909 27.5454545,3.82090909 L27.5454545,17.4394909 C27.5454545,18.7864364 27.2127273,20.1125455 26.5771636,21.3 C25.9414909,22.4875636 25.0225091,23.4997091 23.9018182,24.2467636 L15.2727273,30 L6.64363636,24.2467636 C5.52309818,23.4998182 4.60426909,22.4878909 3.96866182,21.3006545 C3.33304364,20.1134182 3.00032182,18.7876364 3,17.4409091 L3,3.82090909 C3,3.51070909 3.10586945,3.20979273 3.29998909,2.96782909 C3.49410545,2.72586545 3.76491273,2.55730909 4.06772727,2.49 Z M5.72727273,4.91454545 L5.72727273,17.4394909 C5.72727273,18.3374182 5.94896727,19.2214909 6.37263273,20.0131636 C6.79629818,20.8048364 7.40884364,21.4795636 8.15590909,21.9777818 L15.2727273,26.7232364 L22.3896,21.9777818 C23.1364364,21.4797818 23.7488727,20.8051636 24.1724727,20.0137091 C24.5961818,19.2223636 24.8179636,18.3386182 24.8181818,17.4409091 L24.8181818,4.91454545 L15.2727273,2.79545455 L5.72727273,4.91454545 Z M13.9090909,12.2727273 L13.9090909,8.18181818 L16.6363636,8.18181818 L16.6363636,12.2727273 L20.7272727,12.2727273 L20.7272727,15 L16.6363636,15 L16.6363636,19.0909091 L13.9090909,19.0909091 L13.9090909,15 L9.81818182,15 L9.81818182,12.2727273 L13.9090909,12.2727273 Z" id="Shape" fill="#000000" fill-rule="nonzero"></path>
        </g>
    </g>
</svg>