<?xml version="1.0" encoding="UTF-8"?>
<svg width="30px" height="30px" viewBox="0 0 30 30" version="1.1" xmlns="http://www.w3.org/2000/svg" xmlns:xlink="http://www.w3.org/1999/xlink">
    <!-- Generator: Sketch 58 (84663) - https://sketch.com -->
    <title>icons</title>
    <desc>Created with Sketch.</desc>
    <g id="Page-1" stroke="none" stroke-width="1" fill="none" fill-rule="evenodd">
        <g id="insurance">
            <rect id="Rectangle" x="0" y="0" width="30" height="30"></rect>
            <path d="M4.06772727,2.49 L15.2727273,0 L26.4777273,2.49 C26.7805909,2.55730909 27.0514091,2.72586818 27.2454545,2.96781818 C27.4396364,3.20978182 27.5454545,3.51070909 27.5454545,3.82090909 L27.5454545,17.4395454 C27.5454545,18.7864091 27.2127272,20.1125454 26.5771363,21.3 C25.9415455,22.4874546 25.0225909,23.4996818 23.9018182,24.2468182 L15.2727273,30 L6.64363636,24.2468182 C5.52309545,23.4998182 4.60426364,22.4878636 3.96865636,21.3006818 C3.33304909,20.1133636 3.0003223,18.7876364 3,17.4409091 L3,3.82090909 C3,3.51070909 3.10586986,3.20978182 3.29998636,2.96781818 C3.49410136,2.72586818 3.76491409,2.55730909 4.06772727,2.49 Z M13.9090909,12.2727273 L9.81818181,12.2727273 L9.81818181,15 L13.9090909,15 L13.9090909,19.090909 L16.6363637,19.090909 L16.6363637,15 L20.7272727,15 L20.7272727,12.2727273 L16.6363637,12.2727273 L16.6363637,8.18181817 L13.9090909,8.18181817 L13.9090909,12.2727273 Z" id="Shape" fill="#000000" fill-rule="nonzero"></path>
        </g>
    </g>
</svg>