<?xml version="1.0" encoding="UTF-8"?>
<svg width="30px" height="30px" viewBox="0 0 30 30" version="1.1" xmlns="http://www.w3.org/2000/svg" xmlns:xlink="http://www.w3.org/1999/xlink">
    <!-- Generator: Sketch 58 (84663) - https://sketch.com -->
    <title>icons</title>
    <desc>Created with Sketch.</desc>
    <g id="Page-1" stroke="none" stroke-width="1" fill="none" fill-rule="evenodd">
        <g id="loan">
            <rect id="Rectangle" x="0" y="0" width="30" height="30"></rect>
            <path d="M0,3.5 C0,3.10217552 0.158034538,2.72064409 0.439340211,2.43934021 C0.720636887,2.15803453 1.10218272,2 1.5,2 L28.5000607,2 C28.8978605,2 29.2792804,2.15803453 29.5606202,2.43934021 C29.8419601,2.72064409 30,3.10217552 30,3.5 L30,11.7500017 C29.0055005,11.7500017 28.0516809,12.1450835 27.3484212,12.8483432 C26.6451615,13.551603 26.2500617,14.5054405 26.2500617,15.5 C26.2500617,16.4945477 26.6451615,17.4483852 27.3484212,18.1516449 C28.0516809,18.8549046 29.0055005,19.2499324 30,19.2499324 L30,27.5000488 C30,27.8978486 29.8419601,28.2792685 29.5606202,28.5606083 C29.2792804,28.8419482 28.8978605,28.9999881 28.5000607,28.9999881 L1.5,28.9999881 C1.10218272,28.9999881 0.720636887,28.8419482 0.439340211,28.5606083 C0.158034538,28.2792685 0,27.8978486 0,27.5000488 L0,3.5 Z M9.12749719,25.9999295 C9.28209913,25.5605497 9.569325,25.1798499 9.94950284,24.9105699 C10.3296986,24.6412901 10.7841084,24.4965701 11.2500023,24.4965701 C11.7158961,24.4965701 12.1702878,24.6412901 12.5504837,24.9105699 C12.9306615,25.1798499 13.2178874,25.5605497 13.3724893,25.9999295 L26.9999414,25.9999295 L26.9999414,21.5479914 C25.8731419,20.9896316 24.9247223,20.127432 24.2617826,19.0588085 C23.5986629,17.990185 23.247303,16.7575995 23.247303,15.499994 C23.247303,14.2423886 23.5986629,13.0098032 24.2617826,11.9411796 C24.9247223,10.8725741 25.8731419,10.0104465 26.9999414,9.45199673 L26.9999414,5.00000469 L13.3724893,5.00000469 C13.2178874,5.43949249 12.9306615,5.82015633 12.5504837,6.08943621 C12.1702878,6.35871608 11.7158961,6.50334602 11.2500023,6.50334602 C10.7841084,6.50334602 10.3296986,6.35871608 9.94950284,6.08943621 C9.569325,5.82015633 9.28209913,5.43949249 9.12749719,5.00000469 L2.99999389,5.00000469 L2.99999389,25.9999295 L9.12749719,25.9999295 Z M11.2500023,14.0000027 C10.6532665,14.0000027 10.0809568,13.7629408 9.659001,13.340985 C9.23704515,12.9190292 9.00000325,12.3467375 9.00000325,11.7500017 C9.00000325,11.153266 9.23704515,10.5809562 9.659001,10.1590004 C10.0809568,9.73704461 10.6532665,9.5000027 11.2500023,9.5000027 C11.846738,9.5000027 12.4190298,9.73704461 12.8409856,10.1590004 C13.2629414,10.5809562 13.5000032,11.153266 13.5000032,11.7500017 C13.5000032,12.3467375 13.2629414,12.9190292 12.8409856,13.340985 C12.4190298,13.7629408 11.846738,14.0000027 11.2500023,14.0000027 Z M11.2500023,21.4999314 C10.6532665,21.4999314 10.0809568,21.2628715 9.659001,20.8409518 C9.23704515,20.4190319 9.00000325,19.8468122 9.00000325,19.2499324 C9.00000325,18.6532507 9.23704515,18.080959 9.659001,17.6590032 C10.0809568,17.2370473 10.6532665,16.9999875 11.2500023,16.9999875 C11.846738,16.9999875 12.4190298,17.2370473 12.8409856,17.6590032 C13.2629414,18.080959 13.5000032,18.6532507 13.5000032,19.2499324 C13.5000032,19.8468122 13.2629414,20.4190319 12.8409856,20.8409518 C12.4190298,21.2628715 11.846738,21.4999314 11.2500023,21.4999314 Z" id="Shape" fill="#000000" fill-rule="nonzero"></path>
        </g>
    </g>
</svg>