<?xml version="1.0" encoding="UTF-8"?>
<svg width="30px" height="30px" viewBox="0 0 30 30" version="1.1" xmlns="http://www.w3.org/2000/svg" xmlns:xlink="http://www.w3.org/1999/xlink">
    <!-- Generator: Sketch 58 (84663) - https://sketch.com -->
    <title>icons</title>
    <desc>Created with Sketch.</desc>
    <g id="Page-1" stroke="none" stroke-width="1" fill="none" fill-rule="evenodd">
        <g id="user">
            <rect id="Rectangle" x="0" y="0" width="30" height="30"></rect>
            <path d="M25.8571429,30 L23,30 L23,27.1428571 C23,26.0061714 22.54848,24.9161143 21.7447543,24.1124571 C20.9410057,23.3085714 19.8509257,22.8571429 18.7142857,22.8571429 L10.1428571,22.8571429 C9.00621714,22.8571429 7.91613714,23.3085714 7.11238857,24.1124571 C6.30866286,24.9161143 5.85714286,26.0061714 5.85714286,27.1428571 L5.85714286,30 L3,30 L3,27.1428571 C3,25.2484571 3.75254857,23.4315429 5.09209143,22.0921143 C6.43163429,20.7525486 8.24845714,20 10.1428571,20 L18.7142857,20 C20.6086857,20 22.4255086,20.7525486 23.7650514,22.0921143 C25.1046857,23.4315429 25.8571429,25.2484571 25.8571429,27.1428571 L25.8571429,30 Z M14.4285714,17.1428571 C13.3029486,17.1428571 12.1883657,16.9211429 11.1484343,16.4904 C10.1085029,16.0596343 9.16358857,15.4282743 8.36765714,14.6323429 C7.57172571,13.8364114 6.94036571,12.8914971 6.5096,11.8515657 C6.07885714,10.8116343 5.85714286,9.69705143 5.85714286,8.57142857 C5.85714286,7.44580571 6.07885714,6.33122286 6.5096,5.29129143 C6.94036571,4.25136 7.57172571,3.30644571 8.36765714,2.51051429 C9.16358857,1.71458286 10.1085029,1.08322286 11.1484343,0.652461714 C12.1883657,0.221707429 13.3029486,0 14.4285714,0 C16.7018514,0 18.8820343,0.903062857 20.4894857,2.51051429 C22.0969371,4.11796571 23,6.29814857 23,8.57142857 C23,10.8447086 22.0969371,13.0248914 20.4894857,14.6323429 C18.8820343,16.2397943 16.7018514,17.1428571 14.4285714,17.1428571 Z M14.4285714,14.2857143 C15.9440914,14.2857143 17.3975543,13.68368 18.4691886,12.6120457 C19.5408229,11.5404114 20.1428571,10.0869486 20.1428571,8.57142857 C20.1428571,7.05590857 19.5408229,5.60244571 18.4691886,4.53081143 C17.3975543,3.45917714 15.9440914,2.85714286 14.4285714,2.85714286 C12.9130514,2.85714286 11.4595886,3.45917714 10.3879543,4.53081143 C9.31632,5.60244571 8.71428571,7.05590857 8.71428571,8.57142857 C8.71428571,10.0869486 9.31632,11.5404114 10.3879543,12.6120457 C11.4595886,13.68368 12.9130514,14.2857143 14.4285714,14.2857143 Z" id="Shape" fill="#000000" fill-rule="nonzero"></path>
        </g>
    </g>
</svg>